<svg version="1.1" xmlns="http://www.w3.org/2000/svg" viewBox="0 0 1169.9944117012828 457.69269154096855" width="2339.9888234025657" height="915.3853830819371">
  <!-- svg-source:excalidraw -->
  
  <defs>
    <style class="style-fonts">
      @font-face {
        font-family: "Virgil";
        src: url("https://excalidraw.com/Virgil.woff2");
      }
      @font-face {
        font-family: "Cascadia";
        src: url("https://excalidraw.com/Cascadia.woff2");
      }
    </style>
  </defs>
  <rect x="0" y="0" width="1169.9944117012828" height="457.69269154096855" fill="#ffffff"></rect><g transform="translate(545.0590733134395 11.655532909560861) rotate(0 147.5879364013672 16.799999999999955)"><text x="147.5879364013672" y="0" font-family="Virgil, Segoe UI Emoji" font-size="28px" fill="#343a40" text-anchor="middle" style="white-space: pre;" direction="ltr" dominant-baseline="text-before-edge">Donnerstag 8:00 Uhr</text></g><g stroke-linecap="round" transform="translate(759.3621910726279 67.73108186432364) rotate(0 153.5 70)"><path d="M32 0 M32 0 C104.48 -0.59, 175.85 -0.16, 275 0 M32 0 C92.75 -1.64, 154.02 -2.13, 275 0 M275 0 C297.66 -1.22, 308.43 8.94, 307 32 M275 0 C295.13 -0.06, 308.16 12.42, 307 32 M307 32 C306.17 54.97, 307.01 81.69, 307 108 M307 32 C306.45 59.53, 306.8 87.69, 307 108 M307 108 C307.87 127.38, 297.63 140.91, 275 140 M307 108 C305.23 127.06, 297.68 137.98, 275 140 M275 140 C216.7 139.83, 156.26 139.97, 32 140 M275 140 C212.97 137.38, 151.72 138.56, 32 140 M32 140 C9.32 138.2, 0.04 128.62, 0 108 M32 140 C9.88 138.26, 1.44 127.56, 0 108 M0 108 C1.08 85.87, -2.23 62.61, 0 32 M0 108 C-0.02 80.33, 1.23 51.08, 0 32 M0 32 C-1.39 9.24, 9.31 0.25, 32 0 M0 32 C-1.21 9.82, 11.34 0.87, 32 0" stroke="#343a40" stroke-width="1" fill="none"></path></g><g transform="translate(769.2502678548544 104.13108186432373) rotate(0 143.61192321777344 33.59999999999991)"><text x="143.61192321777344" y="0" font-family="Virgil, Segoe UI Emoji" font-size="28px" fill="#343a40" text-anchor="middle" style="white-space: pre;" direction="ltr" dominant-baseline="text-before-edge">Einführung und Start</text><text x="143.61192321777344" y="33.6" font-family="Virgil, Segoe UI Emoji" font-size="28px" fill="#343a40" text-anchor="middle" style="white-space: pre;" direction="ltr" dominant-baseline="text-before-edge">Testat n</text></g><g stroke-linecap="round" transform="translate(10 67.79285384618561) rotate(0 132 71.5)"><path d="M32 0 M32 0 C88.72 3, 144.56 0.15, 232 0 M32 0 C92.31 -0.19, 154.45 0.08, 232 0 M232 0 C252.5 -0.3, 264.64 11.7, 264 32 M232 0 C253.05 -1.09, 264.23 9.57, 264 32 M264 32 C261.62 55.67, 264.03 80.8, 264 111 M264 32 C263.37 52.7, 264.49 70.72, 264 111 M264 111 C265.39 130.35, 255.32 141.33, 232 143 M264 111 C264.61 131.82, 253.79 143.05, 232 143 M232 143 C159.66 141.06, 86.74 141.97, 32 143 M232 143 C169.92 141.44, 109.64 142.11, 32 143 M32 143 C10.06 144.97, 1.46 133.72, 0 111 M32 143 C12.69 144.01, 0.04 130.19, 0 111 M0 111 C0.73 87.21, 0.77 58.74, 0 32 M0 111 C-0.94 87.36, -0.59 63.2, 0 32 M0 32 C-0.74 10.18, 11.39 -0.46, 32 0 M0 32 C-2.02 12.02, 9.08 2.04, 32 0" stroke="#343a40" stroke-width="1" fill="none"></path></g><g transform="translate(28.90802764892578 105.6928538461857) rotate(0 113.09197235107422 33.59999999999991)"><text x="113.09197235107422" y="0" font-family="Virgil, Segoe UI Emoji" font-size="28px" fill="#343a40" text-anchor="middle" style="white-space: pre;" direction="ltr" dominant-baseline="text-before-edge">Abgabe Testat </text><text x="113.09197235107422" y="33.6" font-family="Virgil, Segoe UI Emoji" font-size="28px" fill="#343a40" text-anchor="middle" style="white-space: pre;" direction="ltr" dominant-baseline="text-before-edge">n</text></g><g transform="translate(13.12264701557433 10) rotate(0 133.1819305419922 16.799999999999955)"><text x="133.1819305419922" y="0" font-family="Virgil, Segoe UI Emoji" font-size="28px" fill="#343a40" text-anchor="middle" style="white-space: pre;" direction="ltr" dominant-baseline="text-before-edge">Mittwoch 12:00 Uhr</text></g><g stroke-linecap="round" transform="translate(269.4610023087862 358.69269154096855) rotate(0 266.5 44.5)"><path d="M22.25 0 M22.25 0 C210.11 1.59, 397.31 2.29, 510.75 0 M22.25 0 C127.08 1.82, 231.23 1.78, 510.75 0 M510.75 0 C524.93 -1.23, 534.13 8.89, 533 22.25 M510.75 0 C524.13 -1.95, 531.65 6.76, 533 22.25 M533 22.25 C533.43 37.75, 534.16 54.85, 533 66.75 M533 22.25 C533.45 39.89, 532.24 57.62, 533 66.75 M533 66.75 C532.34 81.3, 527.19 87.33, 510.75 89 M533 66.75 C534.97 83.63, 523.69 87.82, 510.75 89 M510.75 89 C412.13 89.96, 314.41 91.46, 22.25 89 M510.75 89 C378.5 90.86, 246.38 91.02, 22.25 89 M22.25 89 C5.93 87.58, 1.99 81.91, 0 66.75 M22.25 89 C8.85 90.49, 1.52 81.36, 0 66.75 M0 66.75 C-0.89 52.03, -0.63 39.13, 0 22.25 M0 66.75 C-0.3 57.41, 0.74 46.46, 0 22.25 M0 22.25 C-1.64 7.41, 7.55 -1.75, 22.25 0 M0 22.25 C-1.13 8.94, 5.9 1.92, 22.25 0" stroke="#343a40" stroke-width="1" fill="none"></path></g><g transform="translate(370.915058094919 369.59269154096864) rotate(0 165.0459442138672 33.59999999999991)"><text x="165.0459442138672" y="0" font-family="Virgil, Segoe UI Emoji" font-size="28px" fill="#343a40" text-anchor="middle" style="white-space: pre;" direction="ltr" dominant-baseline="text-before-edge">Bearbeitung Testat im </text><text x="165.0459442138672" y="33.6" font-family="Virgil, Segoe UI Emoji" font-size="28px" fill="#343a40" text-anchor="middle" style="white-space: pre;" direction="ltr" dominant-baseline="text-before-edge">Selbststudium</text></g><g stroke-linecap="round"><g transform="translate(261.4144819568255 412.6504540420797) rotate(0 -67.06261801742903 -91.64511027549543)"><path d="M-1.19 0.94 C-16.57 -4.79, -69.78 -2.94, -91.85 -33.5 C-113.92 -64.06, -126.6 -157.56, -133.63 -182.42 M0.38 0.39 C-15.09 -5.78, -69.75 -4.61, -92.23 -35.38 C-114.71 -66.15, -127.53 -159.33, -134.51 -184.23" stroke="#343a40" stroke-width="2" fill="none"></path></g><g transform="translate(261.4144819568255 412.6504540420797) rotate(0 -67.06261801742903 -91.64511027549543)"><path d="M-117.02 -157.01 C-123.32 -167.8, -127.72 -176.92, -133.25 -182.93 M-117.8 -158.83 C-122.8 -165.43, -126.84 -173.36, -135.27 -183.51" stroke="#343a40" stroke-width="2" fill="none"></path></g><g transform="translate(261.4144819568255 412.6504540420797) rotate(0 -67.06261801742903 -91.64511027549543)"><path d="M-137.09 -152.73 C-136.73 -164.74, -134.44 -175.29, -133.25 -182.93 M-137.87 -154.55 C-137.17 -162.24, -135.56 -171.39, -135.27 -183.51" stroke="#343a40" stroke-width="2" fill="none"></path></g></g><mask></mask><g stroke-linecap="round"><g transform="translate(848.3668351906435 183.99546673310942) rotate(92.17428611405435 138.6726031213998 97.97302702899515)"><path d="M0.61 1.07 C11.8 -10.8, 25.39 -76.72, 67.75 -71.98 C110.1 -67.25, 219.88 -27, 254.76 29.47 C289.65 85.94, 273.45 227.51, 277.05 266.83 M-0.53 0.58 C10.45 -10.99, 24.41 -75.36, 66.77 -70.36 C109.14 -65.37, 218.49 -25.89, 253.66 30.54 C288.82 86.96, 274.22 229.05, 277.78 268.17" stroke="#343a40" stroke-width="2" fill="none"></path></g><g transform="translate(848.3668351906435 183.99546673310942) rotate(92.17428611405435 138.6726031213998 97.97302702899515)"><path d="M269.23 239.92 C271.12 248.67, 273.65 261.09, 278.54 268.55 M268.29 239.25 C269.5 245.96, 270.98 252.6, 277.48 267.22" stroke="#343a40" stroke-width="2" fill="none"></path></g><g transform="translate(848.3668351906435 183.99546673310942) rotate(92.17428611405435 138.6726031213998 97.97302702899515)"><path d="M289.75 239.88 C284.49 248.74, 279.89 261.18, 278.54 268.55 M288.81 239.2 C285.56 246, 282.58 252.66, 277.48 267.22" stroke="#343a40" stroke-width="2" fill="none"></path></g></g><mask></mask><g transform="translate(465.00639826013867 315.94249513002705) rotate(0 58.439964294433594 12)"><text x="58.439964294433594" y="0" font-family="Virgil, Segoe UI Emoji" font-size="20px" fill="#343a40" text-anchor="middle" style="white-space: pre;" direction="ltr" dominant-baseline="text-before-edge">2 Wochen ...</text></g><g stroke-linecap="round" transform="translate(362.63927143298497 67.13047900429046) rotate(0 132 71.5)"><path d="M32 0 M32 0 C99.85 1.7, 171.69 3.22, 232 0 M32 0 C86.52 -0.7, 139.7 0, 232 0 M232 0 C254.66 -0.69, 262.77 11.13, 264 32 M232 0 C252.83 1.58, 264.75 12.32, 264 32 M264 32 C264.82 59.64, 262.94 85.32, 264 111 M264 32 C263.18 63.27, 263.34 93.09, 264 111 M264 111 C263.13 131.33, 253.97 143.29, 232 143 M264 111 C262.32 134.56, 254.76 143.73, 232 143 M232 143 C164.93 143.3, 98.75 144.19, 32 143 M232 143 C163.97 141.66, 95.56 142.16, 32 143 M32 143 C10.04 141.54, 1.86 134.21, 0 111 M32 143 C9.57 142.84, -0.64 133.21, 0 111 M0 111 C-0.81 89.67, -2.53 69.79, 0 32 M0 111 C0.84 89.42, -0.1 68.59, 0 32 M0 32 C1.33 11.47, 9.73 -0.25, 32 0 M0 32 C0.67 11.5, 12.04 -0.06, 32 0" stroke="#343a40" stroke-width="1" fill="none"></path></g><g transform="translate(380.7493101903092 88.23047900429037) rotate(0 113.88996124267578 50.40000000000009)"><text x="113.88996124267578" y="0" font-family="Virgil, Segoe UI Emoji" font-size="28px" fill="#343a40" text-anchor="middle" style="white-space: pre;" direction="ltr" dominant-baseline="text-before-edge">Besprechung </text><text x="113.88996124267578" y="33.6" font-family="Virgil, Segoe UI Emoji" font-size="28px" fill="#343a40" text-anchor="middle" style="white-space: pre;" direction="ltr" dominant-baseline="text-before-edge">Testataufgabe </text><text x="113.88996124267578" y="67.2" font-family="Virgil, Segoe UI Emoji" font-size="28px" fill="#343a40" text-anchor="middle" style="white-space: pre;" direction="ltr" dominant-baseline="text-before-edge">n </text></g><g stroke-linecap="round" transform="translate(609.5367011203734 89.95643719960799) rotate(0 82.5 44.5)"><path d="M103.53 10.11 L155.5 40.23 L158.59 43.94 L156.97 46.74 L97.57 80.51 L83.78 87.05 L73.11 84.91 L21.77 55.65 L9.89 49.29 L6.13 44.9 L7.81 41.99 L15.17 39.46 L77.84 3.74 L86.15 1.46 L103.35 11.95" stroke="none" stroke-width="0" fill="#ffffff"></path><path d="M103.75 11.25 M103.75 11.25 C112.29 16.78, 121.74 23.27, 144.25 33.75 M103.75 11.25 C112.87 17.06, 124.09 22.9, 144.25 33.75 M144.25 33.75 C166.45 46.37, 164.98 44.32, 144.25 56.25 M144.25 33.75 C162.82 44.79, 164.93 46.59, 144.25 56.25 M144.25 56.25 C130.77 63.44, 118.84 68.2, 103.75 77.75 M144.25 56.25 C136.66 60.61, 126.01 65.57, 103.75 77.75 M103.75 77.75 C82.39 90.96, 81.94 88.09, 62.25 77.75 M103.75 77.75 C82.71 88.74, 84.27 89.15, 62.25 77.75 M62.25 77.75 C50.39 73.16, 37.99 64.99, 20.75 56.25 M62.25 77.75 C51.91 72.85, 41.78 67.61, 20.75 56.25 M20.75 56.25 C-1.1 45.6, 0.23 44.42, 20.75 33.75 M20.75 56.25 C-1.38 42.78, -0.74 46.13, 20.75 33.75 M20.75 33.75 C35.63 24.75, 49.32 19.26, 62.25 11.25 M20.75 33.75 C34.82 26.19, 47.25 19.44, 62.25 11.25 M62.25 11.25 C83.63 1.19, 82.03 -1.81, 103.75 11.25 M62.25 11.25 C83.45 -2.11, 82.11 -1.68, 103.75 11.25" stroke="#343a40" stroke-width="2" fill="none"></path></g><g transform="translate(658.0287207736937 117.90643719960781) rotate(0 34.25798034667969 16.799999999999955)"><text x="34.25798034667969" y="0" font-family="Virgil, Segoe UI Emoji" font-size="28px" fill="#343a40" text-anchor="middle" style="white-space: pre;" direction="ltr" dominant-baseline="text-before-edge">n=n+1</text></g><g stroke-linecap="round"><g transform="translate(287.6912411394833 136.3127228260273) rotate(0 32.60626713003785 1.625663868688207)"><path d="M-0.14 1.04 C10.87 1.31, 54.1 2.27, 65.35 2.2" stroke="#343a40" stroke-width="2.5" fill="none" stroke-dasharray="8 10"></path></g><g transform="translate(287.6912411394833 136.3127228260273) rotate(0 32.60626713003785 1.625663868688207)"><path d="M38.8 10.73 C45.3 11.72, 49.54 8.03, 67.13 3.83" stroke="#343a40" stroke-width="2.5" fill="none"></path></g><g transform="translate(287.6912411394833 136.3127228260273) rotate(0 32.60626713003785 1.625663868688207)"><path d="M39.01 -9.79 C45.57 -3.84, 49.76 -2.58, 67.13 3.83" stroke="#343a40" stroke-width="2.5" fill="none"></path></g></g><mask></mask></svg>